<?xml version="1.0" encoding="utf-8"?>
<!-- Generator: Adobe Illustrator 15.0.2, SVG Export Plug-In . SVG Version: 6.00 Build 0)  -->
<!DOCTYPE svg PUBLIC "-//W3C//DTD SVG 1.1//EN" "http://www.w3.org/Graphics/SVG/1.1/DTD/svg11.dtd">
<svg version="1.1" id="Layer_1" xmlns="http://www.w3.org/2000/svg" xmlns:xlink="http://www.w3.org/1999/xlink" x="0px" y="0px"
	 width="60px" height="60px" viewBox="0 0 60 60" enable-background="new 0 0 60 60" xml:space="preserve">
<path fill="#1A53A4" d="M45.874,5.667V5.643H13.791v0.023H6.208v48.691h7.583h6.301h19.816h5.966h7.918V5.667H45.874z
	 M50.792,15.025h-7.884V8.667h7.884V15.025z M42.908,36.537h7.884v6.256h-7.884V36.537z M42.908,33.537v-6.256h7.884v6.256H42.908z
	 M42.908,24.281v-6.256h7.884v6.256H42.908z M17.092,24.281H9.208v-6.256h7.884V24.281z M17.092,27.281v6.256H9.208v-6.256H17.092z
	 M17.092,36.537v6.256H9.208v-6.256H17.092z M17.092,8.667v6.358H9.208V8.667H17.092z M13.791,51.357H9.208v-5.564h7.884v5.564
	H13.791z M20.092,51.357V8.643h19.816v42.714H20.092z M45.874,51.357h-2.966v-5.564h7.884v5.564H45.874z"/>
</svg>
