<?xml version="1.0" encoding="utf-8"?>
<!-- Generator: Adobe Illustrator 15.0.2, SVG Export Plug-In . SVG Version: 6.00 Build 0)  -->
<!DOCTYPE svg PUBLIC "-//W3C//DTD SVG 1.1//EN" "http://www.w3.org/Graphics/SVG/1.1/DTD/svg11.dtd">
<svg version="1.1" id="Layer_1" xmlns="http://www.w3.org/2000/svg" xmlns:xlink="http://www.w3.org/1999/xlink" x="0px" y="0px"
	 width="60px" height="60px" viewBox="0 0 60 60" enable-background="new 0 0 60 60" xml:space="preserve">
<g>
	<path fill="#1A53A4" d="M14.147,40.115l-2.416,1.776c1.951,2.653,4.85,4.056,8.384,4.056c3.753,0,6.706-1.567,8.539-4.532
		l-2.551-1.578c-1.295,2.092-3.253,3.11-5.988,3.11C17.502,42.947,15.55,42.021,14.147,40.115z"/>
	<path fill="#1A53A4" d="M26.15,32.281c1.247,0,2.172,0.434,2.826,1.324l2.418-1.776c-1.225-1.667-3.038-2.548-5.244-2.548
		c-2.351,0-4.205,0.989-5.361,2.86l2.553,1.577C23.947,32.737,24.84,32.281,26.15,32.281z"/>
	<path fill="#1A53A4" d="M14.234,32.281c1.247,0,2.172,0.434,2.826,1.324l2.418-1.776c-1.225-1.667-3.038-2.548-5.244-2.548
		c-2.351,0-4.205,0.989-5.361,2.86l2.553,1.577C12.031,32.737,12.924,32.281,14.234,32.281z"/>
	<path fill="#1A53A4" d="M23,5.209v15.447c0,0.168,0.013,0.332,0.016,0.5H3.334v16.103C3.33,37.56,3.287,44.679,8.141,49.6
		c2.927,2.968,6.958,4.473,11.981,4.473c5.022,0,9.061-1.504,12.003-4.47c4.061-4.094,4.738-9.698,4.852-11.632
		c0.9,0.093,1.83,0.155,2.811,0.155c5.023,0,9.061-1.504,12.004-4.471c4.879-4.918,4.877-12.033,4.875-12.321V5.209H23z M34,37.289
		c0,0.062-0.023,6.204-4.022,10.218c-2.356,2.365-5.673,3.565-9.855,3.565c-4.181,0-7.487-1.198-9.829-3.562
		c-3.972-4.012-3.96-10.151-3.959-10.23V24.156H34V37.289z M53.666,21.346c0.002,0.062,0.004,6.156-4.006,10.197
		c-2.357,2.377-5.68,3.583-9.873,3.583c-0.986,0-1.904-0.071-2.787-0.174v-6.294c0.844-0.317,1.803-0.479,2.869-0.479
		c2.014,0,3.682,0.577,4.957,1.716l1.998-2.238c-1.844-1.645-4.184-2.478-6.955-2.478c-1.018,0-1.973,0.122-2.869,0.349v-4.371
		H26.016C26.013,20.988,26,20.824,26,20.656V8.209h27.666V21.346z"/>
	<path fill="#1A53A4" d="M33.85,18.484c2.352,0,4.205-0.989,5.361-2.86l-2.553-1.577c-0.605,0.98-1.498,1.438-2.809,1.438
		c-1.246,0-2.171-0.434-2.827-1.325l-2.416,1.777C29.832,17.604,31.646,18.484,33.85,18.484z"/>
	<path fill="#1A53A4" d="M45.766,18.484c2.352,0,4.205-0.989,5.361-2.86l-2.553-1.577c-0.605,0.98-1.498,1.438-2.809,1.438
		c-1.246,0-2.172-0.434-2.828-1.325l-2.416,1.777C41.748,17.604,43.561,18.484,45.766,18.484z"/>
</g>
</svg>
